<svg width="242" height="71" viewBox="0 0 242 71" fill="none" xmlns="http://www.w3.org/2000/svg">
<path d="M92.9932 40.7554C92.3483 43.3242 91.0585 45.5077 88.9948 47.1774C86.9312 48.8471 84.4805 49.6178 81.7719 49.6178C78.5474 49.6178 75.8389 48.4618 73.6462 46.2783C71.4535 44.0948 70.2927 41.3976 70.2927 38.1866C70.2927 34.9756 71.3246 32.2783 73.5172 30.0948C75.7099 27.9113 78.4185 26.7554 81.514 26.7554C84.3515 26.7554 86.6732 27.526 88.8659 29.1957C91.0585 30.8655 92.3483 33.0489 92.8642 35.7462H86.4152C85.5124 33.6912 83.8356 32.7921 81.643 32.7921C80.0952 32.7921 78.9344 33.3058 78.0315 34.4618C77.1287 35.4893 76.7417 36.7737 76.7417 38.315C76.7417 39.8563 77.2576 41.1407 78.1605 42.1682C79.0634 43.1957 80.3532 43.7095 81.9009 43.7095C83.9646 43.7095 85.5124 42.8104 86.5442 40.8838H92.9932V40.7554Z" fill="#332D5F"/>
<path d="M107.826 33.1774C106.149 33.1774 104.988 33.4343 104.214 33.948C103.183 34.5902 102.796 35.6178 102.796 37.159V48.8471H96.3467V27.526H102.409V29.7095H102.538C103.57 27.6545 105.375 26.7554 107.955 26.7554V33.1774H107.826Z" fill="#332D5F"/>
<path d="M131.687 40.1132H115.694C116.081 42.8104 117.757 44.0948 120.724 44.0948C122.272 44.0948 123.561 43.4526 124.593 42.1682H131.171C130.268 44.3517 128.85 46.1499 127.044 47.4343C125.109 48.8471 123.045 49.4893 120.724 49.4893C117.628 49.4893 114.92 48.3334 112.727 46.1499C110.534 43.9664 109.374 41.2692 109.374 38.1866C109.374 35.104 110.405 32.4068 112.598 30.0948C114.791 27.7829 117.499 26.627 120.595 26.627C123.819 26.627 126.528 27.7829 128.721 30.0948C130.784 32.2783 131.945 35.104 131.945 38.315C131.816 38.9572 131.816 39.5994 131.687 40.1132ZM125.496 35.7462C124.98 33.3059 123.303 32.0214 120.595 32.0214C117.886 32.0214 116.209 33.3059 115.694 35.7462H125.496Z" fill="#332D5F"/>
<path d="M151.679 48.8471V46.5352H151.55C150.905 47.5627 150.002 48.3334 148.842 48.8471C147.81 49.2325 146.649 49.4893 145.23 49.4893C142.006 49.4893 139.426 48.3334 137.362 46.1499C135.428 43.9664 134.396 41.2692 134.396 38.0581C134.396 34.8471 135.299 32.1499 137.233 30.0948C139.297 27.9114 141.877 26.7554 144.972 26.7554C147.552 26.7554 149.615 27.6545 151.292 29.3242V20.3334H157.741V48.8471H151.679ZM150.131 34.2049C149.099 33.1774 147.81 32.6636 146.262 32.6636C144.714 32.6636 143.424 33.1774 142.393 34.2049C141.361 35.2325 140.845 36.5169 140.845 38.0581C140.845 39.5994 141.361 40.8838 142.393 41.9114C143.424 42.9389 144.714 43.4526 146.262 43.4526C147.81 43.4526 149.228 42.9389 150.26 41.9114C151.292 40.8838 151.808 39.5994 151.808 37.9297C151.679 36.5169 151.163 35.2325 150.131 34.2049Z" fill="#332D5F"/>
<path d="M162.385 25.2141V20.3334H168.834V25.2141H162.385ZM162.385 48.8471V27.526H168.834V48.8471H162.385Z" fill="#332D5F"/>
<path d="M181.087 32.2783V48.7187H174.638V32.2783H171.413V27.3976H174.638V20.3334H181.087V27.3976H184.182V32.2783H181.087Z" fill="#332D5F"/>
<path d="M187.406 48.8471V42.2966H194.113V48.8471H187.406Z" fill="#332D5F"/>
<path d="M211.139 48.8471H204.948L197.209 27.526H203.787L207.914 40.8838H208.043L212.171 27.526H218.749L211.139 48.8471Z" fill="#332D5F"/>
<path d="M235.387 48.8471V37.159C235.387 35.7462 235.129 34.7187 234.742 34.0765C234.226 33.1774 233.323 32.7921 232.034 32.7921C230.615 32.7921 229.712 33.1774 229.067 34.0765C228.551 34.7187 228.293 35.8746 228.293 37.2875V48.8471H221.844V27.526H227.777V29.7095H227.906C229.196 27.6545 231.131 26.7554 233.71 26.7554C235.903 26.7554 237.709 27.3976 239.257 28.5535C240.159 29.3242 240.804 30.3517 241.191 31.6361C241.449 32.6636 241.707 33.948 241.707 35.3609V48.7187H235.387V48.8471Z" fill="#332D5F"/>
<path d="M57.7804 58.0156C58.9179 59.1569 58.9252 61.0179 57.6968 62.0601C53.1963 65.8783 47.7913 68.501 41.9799 69.6608C35.2134 71.0113 28.1998 70.3182 21.826 67.6691C15.4521 65.0201 10.0043 60.534 6.1714 54.7783C2.33852 49.0226 0.292725 42.2557 0.292725 35.3334C0.292724 28.411 2.33852 21.6441 6.1714 15.8884C10.0043 10.1327 15.4521 5.64667 21.826 2.99761C28.1998 0.34854 35.2134 -0.344577 41.9798 1.0059C47.7913 2.16579 53.1963 4.78839 57.6968 8.60666C58.9252 9.64881 58.9179 11.5099 57.7804 12.6512C56.643 13.7925 54.8072 13.7794 53.5616 12.758C49.8888 9.74638 45.5244 7.67285 40.8434 6.73859C35.2069 5.61364 29.3646 6.19101 24.0552 8.39768C18.7458 10.6044 14.2077 14.3412 11.015 19.1357C7.82216 23.9302 6.11802 29.5671 6.11802 35.3334C6.11802 41.0997 7.82216 46.7365 11.015 51.531C14.2077 56.3255 18.7458 60.0624 24.0552 62.2691C29.3646 64.4757 35.2069 65.0531 40.8434 63.9282C45.5244 62.9939 49.8888 60.9204 53.5616 57.9087C54.8072 56.8873 56.643 56.8743 57.7804 58.0156Z" fill="#FDBD00"/>
<path d="M49.4698 49.8635C50.605 51.0025 50.6147 52.8661 49.3468 53.8542C46.5036 56.0701 43.1752 57.6018 39.6185 58.3117C35.1075 59.212 30.4318 58.7499 26.1825 56.9839C21.9333 55.2178 18.3014 52.2272 15.7462 48.39C13.1909 44.5529 11.827 40.0416 11.827 35.4267C11.827 30.8118 13.1909 26.3006 15.7462 22.4634C18.3014 18.6263 21.9333 15.6356 26.1825 13.8695C30.4318 12.1035 35.1075 11.6414 39.6185 12.5417C43.1752 13.2516 46.5036 14.7834 49.3468 16.9992C50.6147 17.9873 50.605 19.8509 49.4698 20.9899C48.3346 22.129 46.5053 22.1052 45.1975 21.1709C43.1985 19.7429 40.9123 18.7476 38.4843 18.263C35.101 17.5877 31.5942 17.9343 28.4073 19.2588C25.2204 20.5834 22.4965 22.8264 20.58 25.7042C18.6636 28.5821 17.6407 31.9655 17.6407 35.4267C17.6407 38.8879 18.6636 42.2713 20.58 45.1492C22.4965 48.027 25.2204 50.2701 28.4073 51.5946C31.5942 52.9191 35.101 53.2657 38.4843 52.5904C40.9123 52.1058 43.1985 51.1105 45.1975 49.6825C46.5053 48.7482 48.3346 48.7244 49.4698 49.8635Z" fill="#FDBD00"/>
<path d="M57.7352 57.9702C58.8977 59.1366 58.9051 61.0389 57.6479 62.1016C51.383 67.3973 43.4297 70.3334 35.1747 70.3334C26.9197 70.3334 18.9664 67.3973 12.7015 62.1016C11.4443 61.0389 11.4518 59.1366 12.6142 57.9702L20.7373 49.8196C21.8997 48.6533 23.7729 48.6784 25.1158 49.6297C28.039 51.7004 31.5486 52.8334 35.1747 52.8334C38.8008 52.8334 42.3105 51.7004 45.2336 49.6297C46.5766 48.6784 48.4497 48.6533 49.6121 49.8196L57.7352 57.9702Z" fill="#00377D"/>
<path d="M46.802 35.3334C46.802 41.7767 41.5963 47 35.1747 47C28.7531 47 23.5474 41.7767 23.5474 35.3334C23.5474 28.8901 28.7531 23.6667 35.1747 23.6667C41.5963 23.6667 46.802 28.8901 46.802 35.3334Z" fill="#FD4363"/>
</svg>
