<svg width="375" height="375" viewBox="0 0 375 375" fill="none" xmlns="http://www.w3.org/2000/svg">
<path opacity="0.85" d="M309.012 309.012C315.126 315.126 315.165 325.096 308.562 330.679C284.371 351.134 255.318 365.184 224.079 371.397C187.708 378.632 150.008 374.919 115.747 360.727C81.4857 346.536 52.2022 322.504 31.5995 291.669C10.9967 260.835 2.28396e-06 224.584 0 187.5C-2.28396e-06 150.416 10.9967 114.165 31.5994 83.3306C52.2022 52.4964 81.4857 28.464 115.747 14.2726C150.008 0.0811608 187.708 -3.63197 224.079 3.60276C255.318 9.81642 284.371 23.8661 308.562 44.3211C315.165 49.904 315.126 59.874 309.012 65.9881V65.9881C302.898 72.1022 293.03 72.0322 286.334 66.5606C266.592 50.4267 243.132 39.3186 217.971 34.3136C187.673 28.2871 156.269 31.3801 127.73 43.2016C99.1901 55.023 74.7969 75.042 57.6348 100.727C40.4727 126.412 31.3125 156.609 31.3125 187.5C31.3125 218.391 40.4727 248.588 57.6348 274.273C74.7969 299.958 99.1901 319.977 127.73 331.798C156.269 343.62 187.673 346.713 217.971 340.686C243.132 335.681 266.592 324.573 286.334 308.439C293.03 302.968 302.898 302.898 309.012 309.012V309.012Z" fill="#FDBD00"/>
<path d="M264.34 265.34C270.442 271.442 270.494 281.425 263.679 286.719C248.396 298.589 230.505 306.795 211.386 310.598C187.139 315.421 162.005 312.946 139.165 303.485C116.324 294.024 96.8015 278.002 83.0663 257.446C69.3311 236.89 62 212.723 62 188C62 163.277 69.3311 139.11 83.0663 118.554C96.8015 97.9976 116.324 81.976 139.165 72.5151C162.005 63.0541 187.139 60.5787 211.386 65.4018C230.505 69.2048 248.396 77.4106 263.679 89.2812C270.494 94.5747 270.442 104.558 264.34 110.66V110.66C258.238 116.762 248.405 116.635 241.375 111.63C230.63 103.979 218.341 98.6475 205.29 96.0514C187.104 92.434 168.254 94.2906 151.123 101.386C133.993 108.482 119.351 120.498 109.05 135.915C98.7483 151.332 93.25 169.458 93.25 188C93.25 206.542 98.7483 224.668 109.05 240.085C119.351 255.502 133.993 267.518 151.123 274.614C168.254 281.709 187.104 283.566 205.29 279.949C218.341 277.352 230.63 272.021 241.375 264.37C248.405 259.365 258.238 259.238 264.34 265.34V265.34Z" fill="#FDBD00"/>
<path d="M308.769 308.769C315.017 315.017 315.057 325.208 308.299 330.901C274.624 359.271 231.873 375 187.5 375C143.127 375 100.376 359.271 66.7007 330.901C59.9427 325.208 59.9828 315.017 66.2312 308.769L109.895 265.105C116.143 258.857 126.212 258.991 133.431 264.088C149.143 275.18 168.009 281.25 187.5 281.25C206.991 281.25 225.857 275.18 241.569 264.088C248.788 258.991 258.857 258.857 265.105 265.105L308.769 308.769Z" fill="#00377D"/>
<circle cx="187.5" cy="187.5" r="62.5" fill="#00377D"/>
</svg>
